inDegrees=no
num_controls=7
num_derivatives=13
num_iterations=137
num_multipliers=7
num_parameters=0
num_slacks=7
num_states=26
objective=5.713265
objective_accelerations=0.671217
objective_balance=0.109836
objective_effort=0.475370
objective_height=4.415826
objective_ligament=0.041017
solver_duration=1612.068586
status=Solve_Succeeded
success=true
DataType=double
version=3
OpenSimVersion=4.4-2022-07-23-0e9fedc
endheader
time	/jointset/ground_pelvis/pelvis_tilt/value	/jointset/ground_pelvis/pelvis_tx/value	/jointset/ground_pelvis/pelvis_ty/value	/jointset/hip_l/hip_flexion_l/value	/jointset/hip_l/hip_adduction_l/value	/jointset/hip_l/hip_rotation_l/value	/jointset/back/lumbar_extension/value	/jointset/patellofemoral_l/patellar_flexion_l/value	/jointset/knee_l/knee_flexion_l/value	/jointset/knee_l/knee_adduction_l/value	/jointset/knee_l/knee_rotation_l/value	/jointset/ankle_l/ankle_angle_l/value	/jointset/subtalar_l/subtalar_angle_l/value	/jointset/ground_pelvis/pelvis_tilt/speed	/jointset/ground_pelvis/pelvis_tx/speed	/jointset/ground_pelvis/pelvis_ty/speed	/jointset/hip_l/hip_flexion_l/speed	/jointset/hip_l/hip_adduction_l/speed	/jointset/hip_l/hip_rotation_l/speed	/jointset/back/lumbar_extension/speed	/jointset/patellofemoral_l/patellar_flexion_l/speed	/jointset/knee_l/knee_flexion_l/speed	/jointset/knee_l/knee_adduction_l/speed	/jointset/knee_l/knee_rotation_l/speed	/jointset/ankle_l/ankle_angle_l/speed	/jointset/subtalar_l/subtalar_angle_l/speed	/forceset/tau_hip_flexion_l	/forceset/tau_hip_adduction_l	/forceset/tau_hip_rotation_l	/forceset/tau_knee_flexion_l	/forceset/tau_ankle_angle_l	/forceset/tau_subtalar_angle_l	/forceset/tau_lumbar_extension	lambda_cid13_p0	lambda_cid13_p1	lambda_cid13_p2	lambda_cid13_p3	lambda_cid13_p4	lambda_cid13_p5	lambda_cid14_p0	/jointset/ground_pelvis/pelvis_tilt/accel	/jointset/ground_pelvis/pelvis_tx/accel	/jointset/ground_pelvis/pelvis_ty/accel	/jointset/hip_l/hip_flexion_l/accel	/jointset/hip_l/hip_adduction_l/accel	/jointset/hip_l/hip_rotation_l/accel	/jointset/back/lumbar_extension/accel	/jointset/patellofemoral_l/patellar_flexion_l/accel	/jointset/knee_l/knee_flexion_l/accel	/jointset/knee_l/knee_adduction_l/accel	/jointset/knee_l/knee_rotation_l/accel	/jointset/ankle_l/ankle_angle_l/accel	/jointset/subtalar_l/subtalar_angle_l/accel	gamma_cid13_p0	gamma_cid13_p1	gamma_cid13_p2	gamma_cid13_p3	gamma_cid13_p4	gamma_cid13_p5	gamma_cid14_p0
0	-0.1600100617309787	0.05851623352093035	0.8979935138790287	0.3774920279260975	-0.2592135857570803	-0.2716670988932351	-0.0126506700172305	0.03223623128440103	0.03223623128433527	-0.1745327034182962	0.1732836833789845	-0.04231376238535053	-0.009353138156533145	0	0	0	0	0	0	0	0	0	0	0	0	0	0.1595493325216911	-0.0782587821423521	-0.05255518956260171	-0.3124346509400659	0.312850636266827	-0.05009995925094612	-0.1026325657172466	57.9347241401974	5.287490504721859	5.981533415227592	-2.125721281692266	-588.2969195354585	-68.43398602698039	-39.03475965708304	-4.812826727950752	-2.346683612104532	-1.183823611858065	13.29670544855124	-1.253497526450803	3.047848482706161	-5.980202569742706	9.044621996312957	9.044621996313152	0.07349841896202403	0.07430187945256081	0.6282792430585569	-1.137937266551687	-2.745768168468621e-08	1.110302506297527e-07	7.160448269353465e-08	2.867628009462855e-11	7.801971073770876e-08	1.726627371242405e-08	-9.735180634818397e-09
0.01	-0.1602430359262007	0.05840034216859363	0.8979356187316747	0.3781408912595681	-0.2592761015067429	-0.2715153933071419	-0.0129506275216665	0.03267821490917518	0.03267821490934569	-0.1745312753023808	0.1732847196210554	-0.04228467725984784	-0.009410395522699412	-0.04635031763575154	-0.02307252365206887	-0.01153557565631735	0.1291575365469718	-0.01243707274453995	0.03018796526551043	-0.05956057768057436	0.08800639863797105	0.08800639863798315	0.0002873909181905457	0.0002236162038594583	0.005797531017531206	-0.0113894722346294	0.1526198525279797	-0.08715471901866666	-0.0511669741063649	-0.3042868154388682	0.3003129464251749	-0.03614784867022811	-0.09700823550688786	54.42679706489479	0.1033771009351318	6.509809770928546	-0.8396935031375002	-589.3466550505046	-78.23648111659908	-39.04745754531911	-4.509464376159664	-2.271674718555036	-1.131890866477018	12.63300129946383	-1.228923423150816	2.981290349510039	-5.879346883323603	8.620101792934209	8.620101792934925	0.006649759124366411	-0.00115893824954201	0.5525644408483077	-1.13017752944152	-4.892606256494323e-08	1.16545431143725e-07	1.073960646660002e-07	1.599738573718495e-08	-4.976145263701121e-08	2.434029959791101e-08	-1.715843879190756e-08
0.02	-0.1609321793168007	0.05805689798437041	0.897763674562967	0.3800628746667555	-0.2594610102387957	-0.2710664041081971	-0.0138332631061487	0.03398855311974037	0.03398855311973095	-0.1745269152086068	0.1732884819389154	-0.04219820194222564	-0.009579692676715837	-0.09123383906227278	-0.04551056637730028	-0.02280980427072807	0.2546240147615536	-0.02447859647691162	0.05945672257251599	-0.1165356160052636	0.1736709170917612	0.1736709170917634	0.000586395071474277	0.0005452152436868285	0.01147803842496309	-0.02240795757017109	0.1456903725342293	-0.09605065589488958	-0.04977875865261913	-0.2961389799369512	0.2877752565837699	-0.02219573808933034	-0.09138390529680329	50.99763545909571	-5.094408198311522	7.040133423970166	0.3437717753505565	-589.1707785673531	-87.93619665198605	-39.08497530193377	-4.519467486102935	-2.219787426738768	-1.131554203476763	12.55849378207367	-1.174387724016978	2.864006891005015	-5.46309469856478	8.576245959477079	8.576245959472891	0.07582106598107718	0.0938984466463145	0.6048745210367362	-1.063739886734437	-7.039444344520026e-08	1.220606116576973e-07	1.431876466384657e-07	3.196609519427528e-08	-1.775426160117312e-07	3.141432548339796e-08	-2.458169694899672e-08
0.03	-0.1620633434755263	0.05749242787189528	0.8974800328593919	0.3832216941169436	-0.2597641150308368	-0.27032905806527	-0.0152726034339075	0.03614409466094556	0.03614409466102993	-0.1745192405691747	0.1732957635026662	-0.04205516113247163	-0.009857023386322113	-0.1347676779256988	-0.06725705622516695	-0.03389502983560808	0.3765276564647599	-0.03606293841453774	0.08788579274768379	-0.1709291042581607	0.2570532602737815	0.2570532602738054	0.0009534455327233422	0.0009032552583786431	0.01713922680734019	-0.03297832955210227	0.1392332594232169	-0.09005137419140775	-0.04884435209274007	-0.2902249390252099	0.2823494626711895	-0.02448351157985676	-0.08608217846134933	49.21415701144364	-3.911980920087341	6.992603911043775	0.6210208552154299	-588.9611357115318	-84.53542195009047	-39.14610819654416	-4.235653241548767	-2.133113326882209	-1.093516766569228	11.91445457414077	-1.138564093757536	2.813332845316675	-5.366974092946523	8.161613810944559	8.161613810950037	0.01791515442137958	0.005561717041295527	0.5481026915350846	-1.041742561658746	-9.099605118614672e-08	1.364330343277243e-07	1.71642719426503e-07	4.920555587745483e-08	-2.828785680248898e-07	3.443920654389543e-08	-2.958790515995017e-08
